<?xml version="1.0" encoding="utf-8"?>
<!-- Generator: Adobe Illustrator 23.0.2, SVG Export Plug-In . SVG Version: 6.00 Build 0)  -->
<svg version="1.1" id="Layer_1" xmlns="http://www.w3.org/2000/svg" xmlns:xlink="http://www.w3.org/1999/xlink" x="0px" y="0px" width="150px" height="auto"
	 viewBox="0 0 410.94 146.88" style="enable-background:new 0 0 410.94 146.88;" xml:space="preserve">
<style type="text/css">
	.st0{fill-rule:evenodd;clip-rule:evenodd;fill:#ffffff;}
	.st1{fill:#ffffff;}
</style> 
<g>
	<g>
		<path class="st0" d="M187.85,43.8c0,0-13.03-2.52-27.47-9.92c-14.44-7.4-15.67-8.22-24.71-13.79c-9.03-5.58-18.72-6.22-27.29-4.17
			c-8.57,2.05-21.95,8.51-28.88,21.25c0.06,0.06,10.04,0.47,10.04,0.47s14.5-11.09,24.77-11.5c-0.06,0-12.74,3.81-17.31,9.16
			c-2.35,2.93-0.71,3.76,1.35,4.28c2.06,0.53,9.8,3.46,9.8,3.46s11.27-9.09,21.13-10.03c0,0.06-9.21,2.76-14.38,7.57
			c-2.52,2.17-1.29,4.81,1.94,6.22c3.23,1.41,14.15,7.92,14.15,7.92s11.5-8.39,19.6-8.74c-0.06,0-7.45,2.05-13.09,6.16
			c-5.63,4.11-1.64,5.81,1.76,7.87c3.4,2.05,4.64,4.05,4.64,4.05s7.1,0,9.04,5.05c0.24,1.23,2.35,2.11,2.35,2.11
			s-2.05-4.81-1.17-7.16c0.24,0.47,10.92,0.59,11.04,10.92c-0.12-0.12,2.82,1.06,2.82,1.06s-3.76-4.93-3.17-9.86
			c0.06,0.06,9.68-0.94,12.44,8.8c0.47,1.47,0.65,3.23,0.65,3.23l5.63,1.88c0,0,2.82-3.35,4.93,0.82c0.06,0.12,2.4-0.58,3.17,1.76
			c0,0.06,2.88-1,3.76,2.41c0,0.12,7.22,3.99,7.22,3.99l5.87-3.28c0,0,1.17-4.23,4.69-2.82c-0.23,0,0.82-2.87,3.93-1.76
			c-0.12-0.06,1.58-3.99,5.57-1.29l5.05-1.64c0,0-0.23-11.58,12.6-12.29c0,0.12,0.49,6.12-2.74,9.94c-0.06,0.06,2.47-0.7,2.47-0.7
			s0.14-5.48,4.19-8.45c3.07-2.25,6.9-2.52,6.9-2.52s0.65,3.93-1.35,7.92c0-0.06,1.53-0.94,1.53-0.94s2.4-7.63,10.68-7.16
			c0.06,0,5.75-4.23,5.75-4.23s4.34-2.17,0.94-6.69c-1.82-2.29-9.92-5.93-14.61-7.04c0-0.06,7.51-0.17,20.95,8.98
			c-0.12,0,12.09-6.63,14.55-8.1c2.47-1.47,4.05-3.99,0.12-7.69c-2.64-2.4-6.93-3.87-13.79-6.22c0,0,9.74,0.23,22.3,9.86
			c0-0.06,7.81-2.52,10.39-3.4c2.11-0.59,3.93-2.29-1.17-6.4c-5.11-4.11-15.85-7.04-15.85-7.04s9.51,0,25.47,11.39
			c0.06,0.06,8.28-0.47,9.98-0.3c-0.06,0-3.81-11.39-23.83-19.72c-11.5-5.17-24.59-1-26.76-0.12c-2.17,0.88-16.37,9.63-21.07,12.21
			c-4.69,2.58-21.95,11.45-37.97,14.67 M160.09,39.05c0.12,0,16.58,7.87,26.99,7.28c0,0-4.26,7.63-3.55,15.96
			c0,0-1.54-7.4,0.83-13.97C184.36,48.32,176.78,48.56,160.09,39.05z M186.26,69.15l1,3.17l-2.82-1.94l-2.64,2l0.94-3.11l-2.58-2.23
			h3.22l1.12-3.29l1.12,3.29h3.29L186.26,69.15z M193.95,60.59l1,3.17l-2.82-1.93l-2.64,1.99l0.94-3.11l-2.58-2.23h3.23l1.12-3.29
			l1.11,3.29h3.29L193.95,60.59z M205.39,60.59l-2.82-1.94l-2.64,2l0.94-3.11l-2.58-2.23h3.23l1.12-3.29l1.12,3.29h3.28l-2.64,2.11
			L205.39,60.59z M215.96,63.75l-2.82-1.93l-2.64,1.99l0.94-3.11l-2.58-2.23h3.23l1.12-3.29l1.12,3.29h3.28l-2.64,2.11L215.96,63.75
			z M224.17,72.33l-2.82-1.94l-2.64,2l0.94-3.11l-2.58-2.23h3.23l1.12-3.29l1.11,3.29h3.29l-2.64,2.11L224.17,72.33z M221.59,48.32
			c2.35,6.57,0.82,13.97,0.82,13.97c0.71-8.33-3.52-15.96-3.52-15.96c10.33,0.59,26.64-7.28,26.76-7.28
			C229.1,48.56,221.59,48.32,221.59,48.32z"/>
		<path class="st1" d="M184.74,83.97l1.49,0.54c0,0-0.08-1.8,1.17-2.58C186.93,82.01,185.99,82.01,184.74,83.97z"/>
		<path class="st1" d="M188.49,85.45l1.1,0.55c0,0,0.02-1.59,1.02-2.43C190.45,83.65,189.27,84.27,188.49,85.45z"/>
		<path class="st1" d="M192.01,87.1c0,0,1.64-1.49,3.05-1.57c-0.08,0.08,6.57,3.29,6.57,3.29l-2.03,1.88L192.01,87.1z"/>
		<path class="st1" d="M177.07,78.56c0,0,0.39-6.26-4.77-10.02c-2.74-1.88-6.97-2.19-6.97-2.19s-1.09,5.56,3.99,10.64
			c0-0.08-4.77-1.41-4.77-1.41s1.49-9-9.86-10.87c0,0-1.25,4.77,3.6,9.47c-0.08,0.08-4.93-0.78-4.93-0.78s0.78-8.14-9.39-9
			c0,0-0.55,6.03,5.01,8.68l-4.77-0.55c0,0,1.1-7.2-8.45-8.14c0,0-0.47,5.87,4.07,7.9c-0.16,0-3.91-0.23-3.91-0.23
			s0.86-6.96-8.06-7.2c0,0-0.39,5.56,5.63,7.2c-0.08,0-4.3,0.08-4.3,0.08s-0.31-6.96-9.39-5.63c0,0.06,0.12,1.32,0.69,2.18
			c-0.64-0.5-2.34-1.16-6.32-0.07c0.08,0,0.94,1.95,1.88,2.5c0.08,0.16-4.77-1.33-6.89,2.51c0,0.07,3.13,3.44,7.98,0.31
			c0,0.08-1.96,2.27-2.43,4.39c-0.16,0.15,6.02,1.09,8.61-5.09c0.08,0.08,4.15,0.08,4.15,0.08s-6.1,0.39-6.81,5.32
			c-0.08,0.08,5.71,1.96,8.53-5.16l3.84,0.16c0,0-5.95,0.62-6.65,6.34c0.08,0.08,6.34,1.56,9.78-6.11c0.08,0.08,2.27,0.16,2.27,0.16
			s-4.38,2.11-5.01,5.55c-0.08,0,6.89,2.35,10.33-4.93c0.08,0.16,3.75,0.31,3.75,0.31s-5.79,1.88-5.94,6.18
			c-0.16,0.08,7.12,2.74,11.35-4.93c0.06,0.13,5.52,1.01,7.41,1.3c-1.53-0.14-5.56,0.1-9.45,5.66c0,0.08,5.79,4.07,12.91-4.69
			l5.24,1.09c0,0-6.89,0.71-8.68,7.67c0.08-0.08,7.82,4.69,15.88-5.47c0.08,0.08,0.31-0.4,0.31-0.4l5.87,1.88
			c0,0-0.02-2.05,0.55-2.58L177.07,78.56z M111.26,73.32c1.95-1.8,5.56-0.39,5.56-0.39C113.84,74.73,111.34,73.4,111.26,73.32z
			 M116.74,76.69c1.64-3.05,4.62-2.82,4.62-2.82C119.95,76.85,116.74,76.77,116.74,76.69z M116.27,69.49
			c2.82-0.94,5.17,1.96,5.17,1.96C117.29,72.07,116.34,69.49,116.27,69.49z M121.9,67.84c4.15-0.08,5.09,3.29,5.09,3.29
			C122.84,70.82,121.9,67.69,121.9,67.84z M122.53,77.63c0.55-2.42,4.78-3.52,4.78-3.52C125.89,77.16,122.61,77.78,122.53,77.63z
			 M128.55,78.41c1.64-3.45,5.63-3.6,5.63-3.6C131.99,78.64,128.47,78.41,128.55,78.41z M129.57,66.28
			c3.91,0.55,4.77,4.61,4.77,4.61C129.96,69.72,129.65,66.28,129.57,66.28z M135.91,78.25c1.1-2.66,5.4-3.13,5.4-3.13
			C139.35,78.64,135.91,78.25,135.91,78.25z M142.09,71.44c-4.3-1.56-4.22-4.93-4.15-4.93C142.24,68,142.09,71.44,142.09,71.44z
			 M144.04,79.89c1.56-3.52,6.42-3.6,6.42-3.6C148.04,79.98,143.97,80.05,144.04,79.89z M146.08,66.36c4.3,1.64,4.85,5.71,4.85,5.71
			C146.47,70.5,146.08,66.36,146.08,66.36z M153.67,82.48c0.94-2.66,7.04-3.52,7.04-3.52C158.29,82.87,153.6,82.63,153.67,82.48z
			 M156.57,67.14c5.16,1.88,5.63,7.04,5.63,7.04C157.27,71.99,156.57,67.14,156.57,67.14z M163.37,86.23
			c2.19-5.09,9.86-4.23,9.86-4.23C168.62,88.03,163.3,86.47,163.37,86.23z M167.99,69.64c5.56,1.17,5.79,7.43,5.79,7.43
			C168.69,75.2,167.91,69.8,167.99,69.64z"/>
		<path class="st1" d="M221.06,83.61l-1.49,0.55c0,0-0.19-1.72-1.45-2.5C218.6,81.74,219.81,81.66,221.06,83.61z"/>
		<path class="st1" d="M216.78,85.33l-1.1,0.55c0,0-0.25-1.56-1.25-2.41C214.59,83.56,216,84.16,216.78,85.33z"/>
		<path class="st1" d="M213.22,87.41c0,0-1.56-1.95-2.97-2.04c-0.31,0.08-6.57,3.6-6.57,3.6l2.08,1.43L213.22,87.41z"/>
		<path class="st1" d="M222.71,80.42c0.57,0.53,0.94,2.52,0.94,2.52l5.1-1.68c0,0,0.23,0.47,0.32,0.4
			c8.06,10.17,15.8,5.4,15.88,5.47c-1.8-6.96-8.68-7.67-8.68-7.67l5.24-1.1c6.32,8.98,12.65,5.07,12.65,4.99
			c-3.89-5.56-7.67-6.09-9.19-5.95c1.89-0.3,7.35-1.18,7.41-1.31c4.23,7.67,11.5,5.01,11.35,4.93c-0.16-4.3-5.95-6.18-5.95-6.18
			s3.68-0.16,3.76-0.32c3.44,7.28,10.41,4.93,10.33,4.93c-0.62-3.45-5.01-5.56-5.01-5.56s2.19-0.08,2.27-0.16
			c3.44,7.67,9.7,6.18,9.78,6.11c-0.7-5.71-6.65-6.34-6.65-6.34l3.83-0.16c2.82,7.12,8.61,5.24,8.53,5.16
			c-0.71-4.93-6.81-5.32-6.81-5.32s4.07,0,4.14-0.08c2.58,6.18,8.77,5.24,8.61,5.08c-0.47-2.11-2.43-4.3-2.43-4.38
			c4.85,3.13,7.98-0.23,7.98-0.31c-2.11-3.84-6.96-2.35-6.89-2.51c0.94-0.55,1.8-2.5,1.88-2.5c-3.98-1.09-5.68-0.43-6.32,0.06
			c0.56-0.86,0.68-2.11,0.68-2.18c-9.08-1.33-9.39,5.63-9.39,5.63s-4.23-0.08-4.3-0.08c6.03-1.64,5.63-7.2,5.63-7.2
			c-8.92,0.24-8.06,7.2-8.06,7.2s-3.76,0.23-3.91,0.23c4.54-2.03,4.07-7.9,4.07-7.9c-9.55,0.94-8.45,8.14-8.45,8.14l-4.77,0.55
			c5.56-2.66,5.01-8.68,5.01-8.68c-10.17,0.86-9.39,9-9.39,9s-4.85,0.86-4.93,0.78c4.85-4.69,3.6-9.47,3.6-9.47
			c-11.35,1.88-9.86,10.88-9.86,10.88s-4.77,1.33-4.77,1.41c5.08-5.09,3.99-10.65,3.99-10.65s-3.56-0.11-6.96,2.19
			c-5.4,3.66-4.77,10.02-4.77,10.02L222.71,80.42z M288.46,72.82c0,0,3.6-1.41,5.55,0.39C293.93,73.28,291.43,74.61,288.46,72.82z
			 M283.92,73.75c0,0,2.97-0.23,4.61,2.82C288.53,76.65,285.33,76.73,283.92,73.75z M283.84,71.33c0,0,2.35-2.89,5.16-1.95
			C288.93,69.37,287.99,71.95,283.84,71.33z M278.29,71.01c0,0,0.94-3.37,5.08-3.29C283.37,67.57,282.43,70.7,278.29,71.01z
			 M277.97,73.99c0,0,4.23,1.1,4.77,3.52C282.67,77.67,279.38,77.04,277.97,73.99z M271.08,74.69c0,0,3.99,0.16,5.64,3.6
			C276.8,78.29,273.28,78.52,271.08,74.69z M270.93,70.78c0,0,0.86-4.07,4.77-4.62C275.62,66.16,275.31,69.6,270.93,70.78z
			 M263.97,75c0,0,4.3,0.47,5.4,3.13C269.36,78.14,265.92,78.52,263.97,75z M267.33,66.4c0.08,0,0.16,3.37-4.15,4.93
			C263.18,71.33,263.02,67.88,267.33,66.4z M254.81,76.18c0,0,4.85,0.08,6.42,3.6C261.3,79.93,257.23,79.86,254.81,76.18z
			 M254.34,71.95c0,0,0.55-4.07,4.85-5.71C259.19,66.24,258.8,70.39,254.34,71.95z M244.56,78.84c0,0,3.38-0.17,7.04,3.52
			C251.68,82.51,246.98,82.75,244.56,78.84z M243.07,74.06c0,0,0.47-5.17,5.63-7.04C248.7,67.02,248,71.87,243.07,74.06z
			 M232.04,81.89c0,0,7.67-0.86,9.86,4.23C241.98,86.35,236.66,87.92,232.04,81.89z M231.49,76.96c0,0,0.23-6.26,5.79-7.43
			C237.36,69.68,236.58,75.08,231.49,76.96z"/>
		<polygon class="st1" points="386.9,78.8 291.31,78.8 291.16,76.92 388.5,76.92 		"/>
		<polygon class="st1" points="15.24,77.08 114,77.08 113.69,78.96 17.2,78.96 		"/>
		<path class="st0" d="M217.82,44.4c0,0-7.33-11.8-11.71-17.6c-4.38-5.8-7.18-6.21-11.17-4.59c0,0-5.17-4.65-11.45-2.17
			c-3.31,1.54-3.71,5.32-3.33,6.63c0,0,9.02-3.31,11.15,6.52c1.19,5.81-3,11.61-3,11.61S202.05,53.11,217.82,44.4z"/>
	</g>
	<g>
		<path class="st1" d="M18.37,113.54c0-4.22,0-5-0.06-5.89c-0.05-0.95-0.28-1.39-1.19-1.58c-0.22-0.06-0.69-0.08-1.08-0.08
			c-0.31,0-0.47-0.05-0.47-0.25s0.19-0.25,0.61-0.25c1.47,0,3.22,0.08,4.06,0.08c0.67,0,2.42-0.08,3.42-0.08
			c0.42,0,0.61,0.06,0.61,0.25s-0.17,0.25-0.44,0.25c-0.31,0-0.47,0.03-0.81,0.08c-0.75,0.14-0.97,0.61-1.03,1.58
			c-0.06,0.89-0.06,1.67-0.06,5.89v3.89c0,4.03,0.81,5.73,2.17,6.84c1.25,1.03,2.53,1.14,3.47,1.14c1.22,0,2.72-0.39,3.83-1.5
			c1.53-1.53,1.61-4.03,1.61-6.89v-3.47c0-4.22,0-5-0.06-5.89c-0.05-0.95-0.28-1.39-1.19-1.58c-0.22-0.06-0.69-0.08-1-0.08
			c-0.31,0-0.47-0.05-0.47-0.25s0.19-0.25,0.58-0.25c1.42,0,3.17,0.08,3.2,0.08c0.33,0,2.08-0.08,3.17-0.08
			c0.39,0,0.58,0.06,0.58,0.25s-0.17,0.25-0.5,0.25c-0.31,0-0.47,0.03-0.81,0.08c-0.75,0.14-0.97,0.61-1.03,1.58
			c-0.05,0.89-0.05,1.67-0.05,5.89v2.97c0,3.08-0.31,6.36-2.64,8.37c-1.97,1.69-3.97,2-5.78,2c-1.47,0-4.14-0.08-6.17-1.92
			c-1.42-1.28-2.47-3.33-2.47-7.36V113.54z"/>
		<path class="st1" d="M44.67,122.71c0.06,2.17,0.42,2.89,0.97,3.09c0.47,0.17,1,0.19,1.44,0.19c0.31,0,0.47,0.05,0.47,0.22
			c0,0.22-0.25,0.28-0.64,0.28c-1.81,0-2.92-0.08-3.45-0.08c-0.25,0-1.56,0.08-3,0.08c-0.36,0-0.61-0.03-0.61-0.28
			c0-0.17,0.17-0.22,0.45-0.22c0.36,0,0.86-0.03,1.25-0.14c0.72-0.22,0.83-1.03,0.86-3.45l0.25-16.45c0-0.56,0.08-0.95,0.36-0.95
			c0.31,0,0.56,0.36,1.03,0.86c0.33,0.36,4.56,4.89,8.61,8.92c1.89,1.89,5.64,5.89,6.11,6.34h0.14l-0.28-12.48
			c-0.03-1.69-0.28-2.22-0.95-2.5c-0.42-0.17-1.08-0.17-1.47-0.17c-0.33,0-0.44-0.08-0.44-0.25c0-0.22,0.31-0.25,0.72-0.25
			c1.45,0,2.78,0.08,3.36,0.08c0.31,0,1.36-0.08,2.72-0.08c0.36,0,0.64,0.03,0.64,0.25c0,0.17-0.17,0.25-0.5,0.25
			c-0.28,0-0.5,0-0.83,0.08c-0.78,0.22-1,0.81-1.03,2.36l-0.31,17.54c0,0.61-0.11,0.86-0.36,0.86c-0.31,0-0.64-0.31-0.94-0.61
			c-1.75-1.67-5.31-5.31-8.2-8.17c-3.03-3-6.11-6.48-6.61-7h-0.08L44.67,122.71z"/>
		<path class="st1" d="M69.3,113.54c0-4.22,0-5-0.06-5.89c-0.06-0.95-0.33-1.42-0.95-1.56c-0.31-0.08-0.67-0.11-1-0.11
			c-0.28,0-0.44-0.05-0.44-0.28c0-0.17,0.22-0.22,0.67-0.22c1.06,0,2.81,0.08,3.61,0.08c0.7,0,2.34-0.08,3.39-0.08
			c0.36,0,0.58,0.06,0.58,0.22c0,0.22-0.17,0.28-0.45,0.28c-0.28,0-0.5,0.03-0.83,0.08c-0.75,0.14-0.97,0.61-1.03,1.58
			c-0.06,0.89-0.06,1.67-0.06,5.89v4.89c0,2.69,0,4.89,0.11,6.09c0.08,0.75,0.28,1.25,1.11,1.36c0.39,0.06,1,0.11,1.42,0.11
			c0.31,0,0.44,0.08,0.44,0.22c0,0.19-0.22,0.28-0.53,0.28c-1.83,0-3.58-0.08-4.33-0.08c-0.64,0-2.39,0.08-3.5,0.08
			c-0.36,0-0.56-0.08-0.56-0.28c0-0.14,0.11-0.22,0.44-0.22c0.42,0,0.75-0.05,1-0.11c0.56-0.11,0.72-0.58,0.81-1.39
			c0.14-1.17,0.14-3.36,0.14-6.06V113.54z"/>
		<path class="st1" d="M85.42,107.04l-4.14,0.11c-1.61,0.06-2.28,0.19-2.7,0.81c-0.28,0.42-0.42,0.75-0.47,0.97
			c-0.06,0.22-0.14,0.33-0.31,0.33c-0.19,0-0.25-0.14-0.25-0.44c0-0.45,0.53-2.97,0.58-3.2c0.08-0.36,0.17-0.53,0.33-0.53
			c0.22,0,0.5,0.28,1.2,0.33c0.81,0.08,1.86,0.14,2.78,0.14h11.01c0.89,0,1.5-0.08,1.92-0.14c0.42-0.08,0.64-0.14,0.75-0.14
			c0.19,0,0.22,0.17,0.22,0.58c0,0.58-0.08,2.5-0.08,3.22c-0.03,0.28-0.08,0.44-0.25,0.44c-0.22,0-0.28-0.14-0.31-0.56l-0.03-0.31
			c-0.06-0.72-0.81-1.5-3.28-1.56l-3.5-0.08v11.39c0,2.56,0,4.75,0.14,5.95c0.08,0.78,0.25,1.39,1.08,1.5
			c0.39,0.06,1,0.11,1.42,0.11c0.31,0,0.45,0.08,0.45,0.22c0,0.19-0.22,0.28-0.53,0.28c-1.83,0-3.59-0.08-4.36-0.08
			c-0.64,0-2.39,0.08-3.5,0.08c-0.36,0-0.56-0.08-0.56-0.28c0-0.14,0.11-0.22,0.44-0.22c0.42,0,0.75-0.05,1-0.11
			c0.56-0.11,0.72-0.72,0.81-1.53c0.14-1.17,0.14-3.36,0.14-5.92V107.04z"/>
		<path class="st1" d="M101.32,113.54c0-4.22,0-5-0.06-5.89c-0.06-0.95-0.28-1.39-1.2-1.58c-0.22-0.06-0.69-0.08-1.08-0.08
			c-0.31,0-0.47-0.05-0.47-0.25s0.19-0.25,0.61-0.25c0.75,0,1.56,0.03,2.25,0.03c0.72,0.03,1.36,0.06,1.75,0.06
			c0.89,0,6.42,0,6.95-0.03c0.53-0.06,0.97-0.11,1.19-0.17c0.14-0.03,0.31-0.11,0.45-0.11s0.17,0.11,0.17,0.25
			c0,0.19-0.14,0.53-0.22,1.81c-0.03,0.28-0.08,1.5-0.14,1.83c-0.03,0.14-0.08,0.31-0.28,0.31s-0.25-0.14-0.25-0.39
			c0-0.19-0.03-0.67-0.17-1c-0.19-0.5-0.47-0.83-1.86-1c-0.47-0.06-3.39-0.11-3.95-0.11c-0.14,0-0.19,0.08-0.19,0.28v7.03
			c0,0.19,0.03,0.31,0.19,0.31c0.61,0,3.81,0,4.45-0.06c0.67-0.06,1.08-0.14,1.33-0.42c0.19-0.22,0.31-0.36,0.45-0.36
			c0.11,0,0.19,0.06,0.19,0.22c0,0.17-0.14,0.61-0.22,2.03c-0.06,0.56-0.11,1.67-0.11,1.86c0,0.22,0,0.53-0.25,0.53
			c-0.19,0-0.25-0.11-0.25-0.25c-0.03-0.28-0.03-0.64-0.11-1c-0.14-0.56-0.53-0.97-1.56-1.08c-0.53-0.05-3.28-0.08-3.95-0.08
			c-0.14,0-0.17,0.11-0.17,0.28v2.2c0,0.95-0.03,3.5,0,4.31c0.06,1.92,0.5,2.33,3.34,2.33c0.72,0,1.89,0,2.61-0.33
			c0.72-0.33,1.06-0.92,1.25-2.06c0.06-0.31,0.11-0.42,0.31-0.42c0.22,0,0.22,0.22,0.22,0.5c0,0.64-0.22,2.53-0.36,3.09
			c-0.19,0.72-0.44,0.72-1.5,0.72c-2.08,0-3.61-0.05-4.81-0.08c-1.19-0.06-2.06-0.08-2.89-0.08c-0.31,0-0.92,0.03-1.58,0.03
			c-0.64,0.03-1.36,0.06-1.92,0.06c-0.36,0-0.56-0.08-0.56-0.28c0-0.14,0.11-0.22,0.44-0.22c0.42,0,0.75-0.05,1-0.11
			c0.56-0.11,0.69-0.72,0.81-1.53c0.14-1.17,0.14-3.36,0.14-5.92V113.54z"/>
		<path class="st1" d="M118.75,113.54c0-4.22,0-5-0.06-5.89c-0.05-0.95-0.28-1.39-1.19-1.58c-0.22-0.06-0.7-0.08-1.08-0.08
			c-0.31,0-0.47-0.05-0.47-0.25s0.19-0.25,0.61-0.25c1.47,0,3.22,0.08,4,0.08c0.86,0,2.61-0.08,4.28-0.08c3.47,0,8.12,0,11.14,3.17
			c1.39,1.45,2.69,3.75,2.69,7.06c0,3.5-1.47,6.17-3.03,7.75c-1.28,1.31-4.17,3.28-9.31,3.28c-1,0-2.14-0.08-3.2-0.17
			c-1.06-0.08-2.03-0.17-2.72-0.17c-0.31,0-0.92,0.03-1.58,0.03c-0.64,0.03-1.36,0.06-1.92,0.06c-0.36,0-0.56-0.08-0.56-0.28
			c0-0.14,0.11-0.22,0.44-0.22c0.42,0,0.75-0.05,1-0.11c0.56-0.11,0.69-0.72,0.81-1.53c0.14-1.17,0.14-3.36,0.14-5.92V113.54z
			 M122.22,116.6c0,2.95,0.03,5.08,0.06,5.61c0.03,0.69,0.08,1.81,0.31,2.11c0.36,0.53,1.44,1.11,3.64,1.11c2.84,0,4.73-0.56,6.39-2
			c1.78-1.53,2.33-4.06,2.33-6.92c0-3.53-1.47-5.81-2.67-6.95c-2.56-2.45-5.73-2.78-7.89-2.78c-0.56,0-1.58,0.08-1.81,0.19
			c-0.25,0.11-0.33,0.25-0.33,0.56c-0.03,0.95-0.03,3.36-0.03,5.56V116.6z"/>
		<path class="st1" d="M151.3,126.16c-0.44-0.19-0.53-0.33-0.53-0.95c0-1.53,0.11-3.2,0.14-3.64c0.03-0.42,0.11-0.72,0.33-0.72
			c0.25,0,0.28,0.25,0.28,0.47c0,0.36,0.11,0.95,0.25,1.42c0.61,2.06,2.25,2.81,3.97,2.81c2.5,0,3.72-1.7,3.72-3.17
			c0-1.36-0.42-2.67-2.72-4.45l-1.28-1c-3.06-2.39-4.11-4.33-4.11-6.59c0-3.06,2.56-5.25,6.42-5.25c1.81,0,2.97,0.28,3.7,0.47
			c0.25,0.06,0.39,0.14,0.39,0.33c0,0.36-0.11,1.17-0.11,3.34c0,0.61-0.08,0.83-0.31,0.83c-0.19,0-0.28-0.17-0.28-0.5
			c0-0.25-0.14-1.11-0.72-1.83c-0.42-0.53-1.22-1.36-3.03-1.36c-2.06,0-3.31,1.2-3.31,2.86c0,1.28,0.64,2.25,2.94,4l0.78,0.58
			c3.33,2.58,4.56,4.45,4.56,7.09c0,1.61-0.61,3.53-2.61,4.83c-1.39,0.89-2.94,1.14-4.42,1.14
			C153.75,126.88,152.5,126.69,151.3,126.16z"/>
		<path class="st1" d="M172.57,107.04l-4.14,0.11c-1.61,0.06-2.28,0.19-2.7,0.81c-0.28,0.42-0.42,0.75-0.47,0.97
			c-0.05,0.22-0.14,0.33-0.31,0.33c-0.2,0-0.25-0.14-0.25-0.44c0-0.45,0.53-2.97,0.58-3.2c0.08-0.36,0.17-0.53,0.33-0.53
			c0.22,0,0.5,0.28,1.19,0.33c0.81,0.08,1.86,0.14,2.78,0.14h11c0.89,0,1.5-0.08,1.92-0.14c0.42-0.08,0.64-0.14,0.75-0.14
			c0.19,0,0.22,0.17,0.22,0.58c0,0.58-0.08,2.5-0.08,3.22c-0.03,0.28-0.08,0.44-0.25,0.44c-0.22,0-0.28-0.14-0.31-0.56l-0.03-0.31
			c-0.05-0.72-0.81-1.5-3.28-1.56l-3.5-0.08v11.39c0,2.56,0,4.75,0.14,5.95c0.08,0.78,0.25,1.39,1.08,1.5
			c0.39,0.06,1,0.11,1.42,0.11c0.31,0,0.44,0.08,0.44,0.22c0,0.19-0.22,0.28-0.53,0.28c-1.83,0-3.58-0.08-4.36-0.08
			c-0.64,0-2.39,0.08-3.5,0.08c-0.36,0-0.56-0.08-0.56-0.28c0-0.14,0.11-0.22,0.44-0.22c0.42,0,0.75-0.05,1-0.11
			c0.56-0.11,0.72-0.72,0.81-1.53c0.14-1.17,0.14-3.36,0.14-5.92V107.04z"/>
		<path class="st1" d="M187.91,119.24c-0.14,0-0.19,0.05-0.25,0.22l-1.5,3.97c-0.28,0.69-0.42,1.36-0.42,1.7
			c0,0.5,0.25,0.86,1.11,0.86h0.42c0.33,0,0.42,0.05,0.42,0.22c0,0.22-0.17,0.28-0.47,0.28c-0.89,0-2.08-0.08-2.94-0.08
			c-0.31,0-1.84,0.08-3.28,0.08c-0.36,0-0.53-0.06-0.53-0.28c0-0.17,0.11-0.22,0.33-0.22c0.25,0,0.64-0.03,0.86-0.05
			c1.28-0.17,1.81-1.11,2.36-2.5l6.98-17.45c0.33-0.81,0.5-1.11,0.78-1.11c0.25,0,0.42,0.25,0.69,0.89
			c0.67,1.53,5.11,12.87,6.89,17.09c1.06,2.5,1.86,2.89,2.45,3.03c0.42,0.08,0.83,0.11,1.17,0.11c0.22,0,0.36,0.03,0.36,0.22
			c0,0.22-0.25,0.28-1.28,0.28c-1,0-3.03,0-5.25-0.06c-0.5-0.03-0.83-0.03-0.83-0.22c0-0.17,0.11-0.22,0.39-0.25
			c0.2-0.06,0.39-0.31,0.25-0.64l-2.22-5.89c-0.06-0.14-0.14-0.19-0.28-0.19H187.91z M193.58,117.85c0.14,0,0.17-0.08,0.14-0.17
			l-2.5-6.86c-0.03-0.11-0.06-0.25-0.14-0.25c-0.08,0-0.14,0.14-0.17,0.25l-2.56,6.84c-0.03,0.11,0,0.19,0.11,0.19H193.58z"/>
		<path class="st1" d="M208.01,107.04l-4.14,0.11c-1.61,0.06-2.28,0.19-2.7,0.81c-0.28,0.42-0.42,0.75-0.47,0.97
			c-0.06,0.22-0.14,0.33-0.31,0.33c-0.2,0-0.25-0.14-0.25-0.44c0-0.45,0.53-2.97,0.58-3.2c0.08-0.36,0.17-0.53,0.33-0.53
			c0.22,0,0.5,0.28,1.19,0.33c0.81,0.08,1.86,0.14,2.78,0.14h11c0.89,0,1.5-0.08,1.92-0.14c0.42-0.08,0.64-0.14,0.75-0.14
			c0.19,0,0.22,0.17,0.22,0.58c0,0.58-0.08,2.5-0.08,3.22c-0.03,0.28-0.08,0.44-0.25,0.44c-0.22,0-0.28-0.14-0.31-0.56l-0.03-0.31
			c-0.05-0.72-0.81-1.5-3.28-1.56l-3.5-0.08v11.39c0,2.56,0,4.75,0.14,5.95c0.08,0.78,0.25,1.39,1.08,1.5
			c0.39,0.06,1,0.11,1.42,0.11c0.31,0,0.44,0.08,0.44,0.22c0,0.19-0.22,0.28-0.53,0.28c-1.83,0-3.58-0.08-4.36-0.08
			c-0.64,0-2.39,0.08-3.5,0.08c-0.36,0-0.56-0.08-0.56-0.28c0-0.14,0.11-0.22,0.44-0.22c0.42,0,0.75-0.05,1-0.11
			c0.56-0.11,0.72-0.72,0.81-1.53c0.14-1.17,0.14-3.36,0.14-5.92V107.04z"/>
		<path class="st1" d="M223.91,113.54c0-4.22,0-5-0.05-5.89c-0.05-0.95-0.28-1.39-1.2-1.58c-0.22-0.06-0.69-0.08-1.08-0.08
			c-0.31,0-0.47-0.05-0.47-0.25s0.19-0.25,0.61-0.25c0.75,0,1.56,0.03,2.25,0.03c0.72,0.03,1.36,0.06,1.75,0.06
			c0.89,0,6.42,0,6.95-0.03c0.53-0.06,0.97-0.11,1.2-0.17c0.14-0.03,0.31-0.11,0.44-0.11c0.14,0,0.17,0.11,0.17,0.25
			c0,0.19-0.14,0.53-0.22,1.81c-0.03,0.28-0.08,1.5-0.14,1.83c-0.03,0.14-0.08,0.31-0.28,0.31c-0.2,0-0.25-0.14-0.25-0.39
			c0-0.19-0.03-0.67-0.17-1c-0.2-0.5-0.47-0.83-1.86-1c-0.47-0.06-3.39-0.11-3.95-0.11c-0.14,0-0.19,0.08-0.19,0.28v7.03
			c0,0.19,0.03,0.31,0.19,0.31c0.61,0,3.81,0,4.45-0.06c0.67-0.06,1.08-0.14,1.33-0.42c0.19-0.22,0.31-0.36,0.44-0.36
			c0.11,0,0.19,0.06,0.19,0.22c0,0.17-0.14,0.61-0.22,2.03c-0.06,0.56-0.11,1.67-0.11,1.86c0,0.22,0,0.53-0.25,0.53
			c-0.19,0-0.25-0.11-0.25-0.25c-0.03-0.28-0.03-0.64-0.11-1c-0.14-0.56-0.53-0.97-1.56-1.08c-0.53-0.05-3.28-0.08-3.95-0.08
			c-0.14,0-0.17,0.11-0.17,0.28v2.2c0,0.95-0.03,3.5,0,4.31c0.05,1.92,0.5,2.33,3.33,2.33c0.72,0,1.89,0,2.61-0.33
			c0.72-0.33,1.06-0.92,1.25-2.06c0.05-0.31,0.11-0.42,0.31-0.42c0.22,0,0.22,0.22,0.22,0.5c0,0.64-0.22,2.53-0.36,3.09
			c-0.2,0.72-0.45,0.72-1.5,0.72c-2.08,0-3.61-0.05-4.81-0.08c-1.2-0.06-2.06-0.08-2.89-0.08c-0.31,0-0.92,0.03-1.58,0.03
			c-0.64,0.03-1.36,0.06-1.92,0.06c-0.36,0-0.56-0.08-0.56-0.28c0-0.14,0.11-0.22,0.44-0.22c0.42,0,0.75-0.05,1-0.11
			c0.56-0.11,0.69-0.72,0.81-1.53c0.14-1.17,0.14-3.36,0.14-5.92V113.54z"/>
		<path class="st1" d="M239.81,126.16c-0.44-0.19-0.53-0.33-0.53-0.95c0-1.53,0.11-3.2,0.14-3.64c0.03-0.42,0.11-0.72,0.33-0.72
			c0.25,0,0.28,0.25,0.28,0.47c0,0.36,0.11,0.95,0.25,1.42c0.61,2.06,2.25,2.81,3.97,2.81c2.5,0,3.72-1.7,3.72-3.17
			c0-1.36-0.42-2.67-2.72-4.45l-1.28-1c-3.06-2.39-4.11-4.33-4.11-6.59c0-3.06,2.56-5.25,6.42-5.25c1.81,0,2.97,0.28,3.7,0.47
			c0.25,0.06,0.39,0.14,0.39,0.33c0,0.36-0.11,1.17-0.11,3.34c0,0.61-0.08,0.83-0.31,0.83c-0.19,0-0.28-0.17-0.28-0.5
			c0-0.25-0.14-1.11-0.72-1.83c-0.42-0.53-1.22-1.36-3.03-1.36c-2.06,0-3.31,1.2-3.31,2.86c0,1.28,0.64,2.25,2.94,4l0.78,0.58
			c3.33,2.58,4.56,4.45,4.56,7.09c0,1.61-0.61,3.53-2.61,4.83c-1.39,0.89-2.94,1.14-4.42,1.14
			C242.26,126.88,241.01,126.69,239.81,126.16z"/>
		<path class="st1" d="M265.99,123.85c-2.72-2.39-3.45-5.5-3.45-8.2c0-1.89,0.58-5.17,3.25-7.62c2-1.83,4.64-2.95,8.78-2.95
			c1.72,0,2.75,0.11,4.03,0.28c1.05,0.14,1.94,0.39,2.78,0.47c0.31,0.03,0.42,0.17,0.42,0.33c0,0.22-0.08,0.56-0.14,1.53
			c-0.05,0.92-0.03,2.44-0.08,3c-0.03,0.42-0.08,0.64-0.33,0.64c-0.22,0-0.28-0.22-0.28-0.61c-0.03-0.86-0.39-1.83-1.08-2.56
			c-0.92-0.97-3.09-1.72-5.64-1.72c-2.42,0-4,0.61-5.23,1.72c-2.03,1.86-2.56,4.5-2.56,7.2c0,6.61,5.03,9.89,8.75,9.89
			c2.47,0,3.97-0.28,5.09-1.56c0.47-0.53,0.83-1.33,0.95-1.83c0.08-0.44,0.14-0.56,0.36-0.56c0.19,0,0.25,0.19,0.25,0.42
			c0,0.33-0.33,2.75-0.61,3.7c-0.14,0.47-0.25,0.61-0.72,0.81c-1.11,0.44-3.22,0.64-5,0.64
			C271.72,126.88,268.52,126.05,265.99,123.85z"/>
		<path class="st1" d="M284.65,115.99c0-4.75,3.14-10.89,11.48-10.89c6.92,0,11.23,4.03,11.23,10.39c0,6.36-4.45,11.39-11.5,11.39
			C287.87,126.88,284.65,120.91,284.65,115.99z M303.46,116.51c0-6.22-3.59-10.09-8.14-10.09c-3.2,0-6.84,1.78-6.84,8.7
			c0,5.78,3.2,10.37,8.53,10.37C298.96,125.49,303.46,124.55,303.46,116.51z"/>
		<path class="st1" d="M312.11,113.54c0-4.22,0-5-0.06-5.89c-0.05-0.95-0.28-1.39-1.2-1.58c-0.22-0.06-0.69-0.08-1.08-0.08
			c-0.31,0-0.47-0.05-0.47-0.25s0.19-0.25,0.61-0.25c1.47,0,3.22,0.08,4.06,0.08c0.67,0,2.42-0.08,3.42-0.08
			c0.42,0,0.61,0.06,0.61,0.25s-0.17,0.25-0.45,0.25c-0.31,0-0.47,0.03-0.8,0.08c-0.75,0.14-0.97,0.61-1.03,1.58
			c-0.05,0.89-0.05,1.67-0.05,5.89v3.89c0,4.03,0.8,5.73,2.17,6.84c1.25,1.03,2.53,1.14,3.47,1.14c1.22,0,2.72-0.39,3.83-1.5
			c1.53-1.53,1.61-4.03,1.61-6.89v-3.47c0-4.22,0-5-0.06-5.89c-0.05-0.95-0.28-1.39-1.2-1.58c-0.22-0.06-0.69-0.08-1-0.08
			s-0.47-0.05-0.47-0.25s0.19-0.25,0.58-0.25c1.42,0,3.17,0.08,3.2,0.08c0.33,0,2.09-0.08,3.17-0.08c0.39,0,0.58,0.06,0.58,0.25
			s-0.17,0.25-0.5,0.25c-0.31,0-0.47,0.03-0.81,0.08c-0.75,0.14-0.97,0.61-1.03,1.58c-0.06,0.89-0.06,1.67-0.06,5.89v2.97
			c0,3.08-0.31,6.36-2.64,8.37c-1.97,1.69-3.97,2-5.78,2c-1.47,0-4.14-0.08-6.17-1.92c-1.42-1.28-2.47-3.33-2.47-7.36V113.54z"/>
		<path class="st1" d="M336.85,113.54c0-4.22,0-5-0.05-5.89c-0.06-0.95-0.28-1.39-1.2-1.58c-0.22-0.06-0.69-0.08-1.08-0.08
			c-0.31,0-0.47-0.05-0.47-0.25s0.19-0.25,0.61-0.25c1.47,0,3.22,0.08,3.81,0.08c0.95,0,3.06-0.08,3.92-0.08
			c1.75,0,3.61,0.17,5.11,1.2c0.78,0.53,1.89,1.94,1.89,3.81c0,2.06-0.86,3.95-3.67,6.22c2.47,3.11,4.39,5.59,6.03,7.31
			c1.56,1.61,2.7,1.81,3.11,1.89c0.31,0.06,0.56,0.08,0.78,0.08c0.22,0,0.33,0.08,0.33,0.22c0,0.22-0.19,0.28-0.53,0.28h-2.64
			c-1.56,0-2.25-0.14-2.97-0.53c-1.2-0.64-2.25-1.94-3.81-4.09c-1.11-1.53-2.39-3.42-2.75-3.83c-0.14-0.17-0.31-0.2-0.5-0.2
			l-2.42-0.05c-0.14,0-0.22,0.05-0.22,0.22v0.39c0,2.58,0,4.78,0.14,5.95c0.08,0.81,0.25,1.42,1.08,1.53
			c0.42,0.06,1.03,0.11,1.36,0.11c0.22,0,0.33,0.08,0.33,0.22c0,0.19-0.2,0.28-0.56,0.28c-1.61,0-3.67-0.08-4.09-0.08
			c-0.53,0-2.28,0.08-3.39,0.08c-0.36,0-0.56-0.08-0.56-0.28c0-0.14,0.11-0.22,0.44-0.22c0.42,0,0.75-0.05,1-0.11
			c0.56-0.11,0.69-0.72,0.81-1.53c0.14-1.17,0.14-3.36,0.14-5.92V113.54z M340.13,115.74c0,0.31,0.06,0.42,0.25,0.5
			c0.58,0.19,1.42,0.28,2.11,0.28c1.11,0,1.47-0.11,1.97-0.47c0.83-0.61,1.64-1.89,1.64-4.17c0-3.95-2.61-5.09-4.25-5.09
			c-0.69,0-1.2,0.03-1.47,0.11c-0.19,0.06-0.25,0.17-0.25,0.39V115.74z"/>
		<path class="st1" d="M360.34,107.04l-4.14,0.11c-1.61,0.06-2.28,0.19-2.7,0.81c-0.28,0.42-0.42,0.75-0.47,0.97
			c-0.06,0.22-0.14,0.33-0.31,0.33c-0.2,0-0.25-0.14-0.25-0.44c0-0.45,0.53-2.97,0.58-3.2c0.08-0.36,0.17-0.53,0.33-0.53
			c0.22,0,0.5,0.28,1.19,0.33c0.81,0.08,1.86,0.14,2.78,0.14h11c0.89,0,1.5-0.08,1.92-0.14c0.42-0.08,0.64-0.14,0.75-0.14
			c0.19,0,0.22,0.17,0.22,0.58c0,0.58-0.08,2.5-0.08,3.22c-0.03,0.28-0.08,0.44-0.25,0.44c-0.22,0-0.28-0.14-0.31-0.56l-0.03-0.31
			c-0.05-0.72-0.81-1.5-3.28-1.56l-3.5-0.08v11.39c0,2.56,0,4.75,0.14,5.95c0.08,0.78,0.25,1.39,1.08,1.5
			c0.39,0.06,1,0.11,1.42,0.11c0.31,0,0.44,0.08,0.44,0.22c0,0.19-0.22,0.28-0.53,0.28c-1.83,0-3.58-0.08-4.36-0.08
			c-0.64,0-2.39,0.08-3.5,0.08c-0.36,0-0.56-0.08-0.56-0.28c0-0.14,0.11-0.22,0.44-0.22c0.42,0,0.75-0.05,1-0.11
			c0.56-0.11,0.72-0.72,0.81-1.53c0.14-1.17,0.14-3.36,0.14-5.92V107.04z"/>
		<path class="st1" d="M374.71,126.16c-0.44-0.19-0.53-0.33-0.53-0.95c0-1.53,0.11-3.2,0.14-3.64c0.03-0.42,0.11-0.72,0.33-0.72
			c0.25,0,0.28,0.25,0.28,0.47c0,0.36,0.11,0.95,0.25,1.42c0.61,2.06,2.25,2.81,3.97,2.81c2.5,0,3.72-1.7,3.72-3.17
			c0-1.36-0.42-2.67-2.72-4.45l-1.28-1c-3.06-2.39-4.11-4.33-4.11-6.59c0-3.06,2.56-5.25,6.42-5.25c1.81,0,2.97,0.28,3.7,0.47
			c0.25,0.06,0.39,0.14,0.39,0.33c0,0.36-0.11,1.17-0.11,3.34c0,0.61-0.08,0.83-0.31,0.83c-0.19,0-0.28-0.17-0.28-0.5
			c0-0.25-0.14-1.11-0.72-1.83c-0.42-0.53-1.22-1.36-3.03-1.36c-2.06,0-3.31,1.2-3.31,2.86c0,1.28,0.64,2.25,2.94,4l0.78,0.58
			c3.33,2.58,4.56,4.45,4.56,7.09c0,1.61-0.61,3.53-2.61,4.83c-1.39,0.89-2.94,1.14-4.42,1.14
			C377.16,126.88,375.91,126.69,374.71,126.16z"/>
	</g>
</g>
</svg>
